<?xml version="1.0" encoding="UTF-8" standalone="no"?>
<!-- Created with Inkscape (http://www.inkscape.org/) -->

<svg
   xmlns:dc="http://purl.org/dc/elements/1.1/"
   xmlns:cc="http://creativecommons.org/ns#"
   xmlns:rdf="http://www.w3.org/1999/02/22-rdf-syntax-ns#"
   xmlns:svg="http://www.w3.org/2000/svg"
   xmlns="http://www.w3.org/2000/svg"
   xmlns:sodipodi="http://sodipodi.sourceforge.net/DTD/sodipodi-0.dtd"
   xmlns:inkscape="http://www.inkscape.org/namespaces/inkscape"
   id="svg2"
   version="1.1"
   inkscape:version="0.91 r13725"
   width="667.5"
   height="667"
   viewBox="0 0 667.5 667"
   sodipodi:docname="gee.svg"
   inkscape:export-filename="/tmp/path4172.png"
   inkscape:export-xdpi="8.6300001"
   inkscape:export-ydpi="8.6300001">
  <metadata
     id="metadata8">
    <rdf:RDF>
      <cc:Work
         rdf:about="">
        <dc:format>image/svg+xml</dc:format>
        <dc:type
           rdf:resource="http://purl.org/dc/dcmitype/StillImage" />
        <dc:title></dc:title>
      </cc:Work>
    </rdf:RDF>
  </metadata>
  <defs
     id="defs6" />
  <sodipodi:namedview
     pagecolor="#ffffff"
     bordercolor="#666666"
     borderopacity="1"
     objecttolerance="10"
     gridtolerance="10"
     guidetolerance="10"
     inkscape:pageopacity="0"
     inkscape:pageshadow="2"
     inkscape:window-width="1920"
     inkscape:window-height="1051"
     id="namedview4"
     showgrid="false"
     inkscape:zoom="0.45521398"
     inkscape:cx="624.48516"
     inkscape:cy="412.3242"
     inkscape:window-x="1920"
     inkscape:window-y="0"
     inkscape:window-maximized="1"
     inkscape:current-layer="svg2"
     inkscape:showpageshadow="false" />
  <g
     style="font-style:normal;font-weight:normal;font-size:316.79693604px;line-height:125%;font-family:Sans;letter-spacing:0px;word-spacing:0px;fill:#000000;fill-opacity:1;stroke:none;stroke-width:1px;stroke-linecap:butt;stroke-linejoin:miter;stroke-opacity:1"
     id="text4168">
    <path
       style="font-style:normal;font-variant:normal;font-weight:normal;font-stretch:normal;font-size:712.79309082px;font-family:Limelight;-inkscape-font-specification:Limelight"
       d="M 362.46094 106.45898 C 200.96875 106.45898 90.638672 225.48885 90.638672 365.40234 C 90.638672 520.28169 200.2739 611.81641 328.00586 611.81641 C 413.9726 611.81641 491.23792 574.92428 535.43945 500.79102 L 535.43945 546.38477 C 535.43945 557.8702 535.09023 574.92426 534.74219 579.79688 C 534.0461 585.71362 533.35156 590.58713 533.35156 593.02344 C 533.35156 603.81278 538.91884 609.0332 548.66406 609.0332 C 557.0171 609.0332 564.32617 602.07294 564.32617 590.93555 C 564.32617 582.93054 563.63164 575.62018 562.93555 562.39453 C 562.58751 555.7817 562.23828 546.7335 562.23828 536.98828 L 562.23828 422.48242 C 562.23828 410.3009 562.23947 402.99173 562.93555 396.37891 C 563.63164 390.11412 564.32617 384.89369 564.32617 378.62891 C 564.32617 368.88369 558.40967 361.22656 548.31641 361.22656 C 538.57119 361.22656 533.69922 368.88253 533.69922 379.67188 C 533.69922 383.15231 534.0461 387.32975 534.74219 392.89844 C 535.09023 397.77105 535.43945 403.68717 535.43945 410.99609 L 535.43945 444.4082 C 497.50271 542.20843 414.66833 586.0625 331.83398 586.0625 C 327.65746 586.0625 322.43745 586.06289 317.2168 585.71484 L 317.2168 135.3457 C 329.39832 132.9094 341.92788 131.86523 357.58984 131.86523 C 376.73223 131.86523 398.65861 132.56224 440.42383 146.83203 C 461.65448 154.48898 480.44814 169.45478 490.19336 178.50391 C 497.15423 184.42065 504.11489 187.90039 509.68359 187.90039 C 518.38468 187.90039 524.65039 180.24405 524.65039 171.54297 C 524.65039 162.14579 510.38008 146.48263 470.70312 128.73242 C 441.46747 115.50676 402.1379 106.45898 362.46094 106.45898 z M 196.0625 229.84375 A 21.418499 21.418499 0 0 1 217.48047 251.26172 A 21.418499 21.418499 0 0 1 196.0625 272.67969 A 21.418499 21.418499 0 0 1 174.64258 251.26172 A 21.418499 21.418499 0 0 1 196.0625 229.84375 z "
       id="path4175" />
  </g>
</svg>
